<svg version="1.1" xmlns="http://www.w3.org/2000/svg" xmlns:xlink="http://www.w3.org/1999/xlink" width="48" height="48"><defs><linearGradient x1="13.81514" y1="9.82524" x2="68.26426" y2="68.95149" gradientUnits="userSpaceOnUse" id="color-1"><stop offset="0" stop-color="#000000" stop-opacity="0.3"></stop><stop offset="1" stop-color="#000000" stop-opacity="0"></stop></linearGradient><filter id="dropshadow-base"><feColorMatrix type="matrix" values="0 0 0 0 0  0 0 0 0 0  0 0 0 0 0  0 0 0 .8 0"></feColorMatrix> <feOffset dx="0" dy="1"></feOffset> <feGaussianBlur stdDeviation="1"></feGaussianBlur> <feComposite in="SourceGraphic"></feComposite></filter><filter id="dropshadow-banner" x="-10%" y="-10%" width="120%" height="130%"><feColorMatrix type="matrix" values="0 0 0 0 0  0 0 0 0 0  0 0 0 0 0  0 0 0 .4 0"></feColorMatrix> <feOffset dx="0" dy="1"></feOffset> <feGaussianBlur stdDeviation="0.5"></feGaussianBlur> <feComposite in="SourceGraphic"></feComposite></filter></defs><g fill="none" fill-rule="nonzero" stroke="none" stroke-width="none" stroke-linecap="butt" stroke-linejoin="miter" stroke-miterlimit="10" stroke-dasharray="" stroke-dashoffset="0" font-family="none" font-weight="none" font-size="none" text-anchor="none" style="mix-blend-mode: normal"><path d="M2,24c0,-12.15026 9.84974,-22 22,-22c12.15026,0 22,9.84974 22,22c0,12.15026 -9.84974,22 -22,22c-12.15026,0 -22,-9.84974 -22,-22z" id="base 1 5" fill="#00dbe7" stroke-width="1"></path><path d="M13.81514,24.68397c0,-3.61441 1.89114,-6.783 4.73056,-8.5902l7.873,7.873v-6.82988l-5.35512,-5.35512c0,-1.08017 1.19789,-1.95653 2.67702,-1.95653c0.88996,0 1.67763,0.31633 2.16444,0.80314l2.76011,2.76011v-1.3473c1.85005,0.6845 3.51058,1.76087 4.87859,3.12888l12.19979,12.19979c-1.31168,8.53313 -7.52639,15.44986 -15.677,17.78307l-13.26833,-13.26833c-1.84293,-1.84293 -2.98305,-4.38859 -2.98305,-7.20063z" fill="url(#color-1)" stroke-width="1"></path><path transform="translate(-10.01942,-10.01942) scale(1.41748,1.41748)" d="M33.51517,24.48253c0,5.2551 -4.26006,9.51747 -9.51517,9.51747c-5.25587,0 -9.51517,-4.26237 -9.51517,-9.51747c0,-3.88404 2.3315,-7.22058 5.66727,-8.69853v2.63832c-2.00315,1.27494 -3.33731,3.51032 -3.33731,6.06021c0,3.96863 3.21889,7.18521 7.18674,7.18521c3.96709,0 7.18444,-3.21658 7.18444,-7.18521c0,-2.78058 -1.5833,-5.18897 -3.89481,-6.38164v-2.53758c3.62874,1.34261 6.224,4.82218 6.224,8.91922zM21.92841,24.33488v-8.95459c0,-0.76204 0.84509,-1.38029 1.88858,-1.38029c1.04502,0 1.89011,0.61825 1.88935,1.38029v8.95382c0,0.75897 -0.84432,1.37645 -1.88935,1.37645c-1.04272,0 -1.88781,-0.61671 -1.88858,-1.37568z" fill="none" stroke-width="0"></path><path d="M37.48752,24.68397c0,7.44898 -6.03854,13.49079 -13.48752,13.49079c-7.45007,0 -13.48752,-6.04181 -13.48752,-13.49079c0,-5.50553 3.30485,-10.23499 8.03322,-12.32995v3.73975c-2.83942,1.8072 -4.73055,4.9758 -4.73055,8.5902c0,5.62543 4.56269,10.18486 10.18704,10.18486c5.62325,0 10.18377,-4.55942 10.18377,-10.18486c0,-3.9414 -2.24429,-7.35524 -5.52079,-9.04582v-3.59696c5.14366,1.90312 8.82237,6.83532 8.82237,12.64278zM21.06357,24.47469v-12.69292c0,-1.08018 1.1979,-1.95653 2.67701,-1.95653c1.48129,0 2.67919,0.87635 2.6781,1.95653v12.69183c0,1.07582 -1.19681,1.95108 -2.6781,1.95108c-1.47802,0 -2.67592,-0.87417 -2.67701,-1.94999z" fill="#ff006c" stroke-width="0"></path><path d="M2,24c0,-12.15026 9.84974,-22 22,-22c12.15026,0 22,9.84974 22,22c0,12.15026 -9.84974,22 -22,22c-12.15026,0 -22,-9.84974 -22,-22z" id="base 1 1 1" fill="none" stroke-width="1"></path><g id="Capa_1 1 1" fill="#000000" stroke-width="1" font-family="Roboto, sans-serif" font-weight="400" font-size="14" text-anchor="start"><g><g id="c192_off 1 1"></g><g id="Capa_1_192_ 1 1"></g></g><g></g><g></g><g></g><g></g><g></g><g></g><g></g><g></g><g></g><g></g><g></g><g></g><g></g><g></g><g></g></g><rect x="2" y="2" width="44" height="22" fill="none" stroke-width="1"></rect><path d="M2,24v-22h44v22z" fill="none" stroke-width="1"></path><path d="M2,24v-22h44v22z" fill="none" stroke-width="1"></path><path d="M2,24v-22h44v22z" fill="none" stroke-width="1"></path><path d="M2,24v-22h44v22z" fill="none" stroke-width="1"></path></g></svg>