<svg version="1.1" xmlns="http://www.w3.org/2000/svg" xmlns:xlink="http://www.w3.org/1999/xlink" width="48" height="48"><defs><linearGradient x1="11.76129" y1="11.67153" x2="63.00671" y2="63.0965" gradientUnits="userSpaceOnUse" id="color-1"><stop offset="0" stop-color="#000000" stop-opacity="0.3"></stop><stop offset="1" stop-color="#000000" stop-opacity="0"></stop></linearGradient><filter id="dropshadow-base"><feColorMatrix type="matrix" values="0 0 0 0 0  0 0 0 0 0  0 0 0 0 0  0 0 0 .8 0"></feColorMatrix> <feOffset dx="0" dy="1"></feOffset> <feGaussianBlur stdDeviation="1"></feGaussianBlur> <feComposite in="SourceGraphic"></feComposite></filter><filter id="dropshadow-banner" x="-10%" y="-10%" width="120%" height="130%"><feColorMatrix type="matrix" values="0 0 0 0 0  0 0 0 0 0  0 0 0 0 0  0 0 0 .4 0"></feColorMatrix> <feOffset dx="0" dy="1"></feOffset> <feGaussianBlur stdDeviation="0.5"></feGaussianBlur> <feComposite in="SourceGraphic"></feComposite></filter></defs><g fill="none" fill-rule="nonzero" stroke="none" stroke-width="none" stroke-linecap="butt" stroke-linejoin="miter" stroke-miterlimit="10" stroke-dasharray="" stroke-dashoffset="0" font-family="none" font-weight="none" font-size="none" text-anchor="none" style="mix-blend-mode: normal"><path d="M2,24c0,-12.15026 9.84974,-22 22,-22c12.15026,0 22,9.84974 22,22c0,12.15026 -9.84974,22 -22,22c-12.15026,0 -22,-9.84974 -22,-22z" id="base 1 5" fill="#ffffff" stroke-width="1"></path><path d="M24,11.67153c0.52707,0 1.00467,0.21407 1.35051,0.55991l4.11059,4.11059c-0.30165,-0.49705 -0.28128,-1.14911 0.09973,-1.63188c0.49003,-0.6199 1.393,-0.72744 2.01188,-0.23741l-0.00001,-0.00001c0.38631,0.30487 0.75117,0.62952 1.09361,0.97196l12.90397,12.90397c-1.74603,8.70844 -8.63378,15.5586 -17.36208,17.24931l-12.85826,-12.85826c-2.21604,-2.21604 -3.58865,-5.27561 -3.58865,-8.64993c0,-3.77113 1.69939,-7.27543 4.66294,-9.61401c0.57781,-0.45359 1.39392,-0.39567 1.9002,0.1106l3.76515,3.76515l0,-4.76957c0,-1.05413 0.85629,-1.91042 1.91042,-1.91042z" fill="url(#color-1)" stroke-width="1"></path><path d="M22.08957,23.13407v-9.55213c0,-1.05413 0.85629,-1.91043 1.91043,-1.91043c1.05413,0 1.91043,0.85629 1.91043,1.91043v9.55213c0,1.05413 -0.85629,1.91043 -1.91043,1.91043c-1.05413,0 -1.91043,-0.85629 -1.91043,-1.91043zM31.57271,14.47273c-0.61888,-0.49003 -1.52185,-0.38249 -2.01188,0.23741c-0.49003,0.62091 -0.38351,1.52185 0.23741,2.0129c2.27262,1.79274 3.57533,4.47727 3.57533,7.36675c0,5.16819 -4.20537,9.37356 -9.37255,9.37356c-5.16819,0 -9.37356,-4.20537 -9.37356,-9.37356c0,-2.88847 1.30169,-5.57199 3.57228,-7.36371c0.62091,-0.49003 0.72744,-1.39097 0.23741,-2.0129c-0.49003,-0.62091 -1.38995,-0.72643 -2.0129,-0.23741c-2.96354,2.33857 -4.66294,5.84288 -4.66294,9.61401c0,6.74888 5.49082,12.23869 12.23869,12.23869c6.74787,0 12.23869,-5.49082 12.23869,-12.23869c0,-3.77317 -1.70142,-7.27747 -4.66598,-9.61706z" fill="none" stroke-width="0"></path><path d="M22.08957,23.13407v-9.55213c0,-1.05413 0.85629,-1.91043 1.91043,-1.91043c1.05413,0 1.91043,0.85629 1.91043,1.91043v9.55213c0,1.05413 -0.85629,1.91043 -1.91043,1.91043c-1.05413,0 -1.91043,-0.85629 -1.91043,-1.91043zM36.23869,24.08979c0,6.74787 -5.49082,12.23869 -12.23869,12.23869c-6.74787,0 -12.23869,-5.48981 -12.23869,-12.23869c0,-3.77114 1.6994,-7.27544 4.66294,-9.61401c0.62294,-0.48902 1.52286,-0.38351 2.0129,0.23741c0.49003,0.62193 0.38351,1.52286 -0.23741,2.0129c-2.2706,1.79172 -3.57228,4.47524 -3.57228,7.36371c0,5.16819 4.20537,9.37356 9.37356,9.37356c5.16718,0 9.37255,-4.20537 9.37255,-9.37356c0,-2.88948 -1.3027,-5.57402 -3.57533,-7.36675c-0.62091,-0.49105 -0.72744,-1.39198 -0.23741,-2.0129c0.49003,-0.6199 1.393,-0.72744 2.01188,-0.23741c2.96456,2.33959 4.66598,5.84389 4.66598,9.61706z" fill="#2e132b" stroke-width="0"></path><path d="M2,24c0,-12.15026 9.84974,-22 22,-22c12.15026,0 22,9.84974 22,22c0,12.15026 -9.84974,22 -22,22c-12.15026,0 -22,-9.84974 -22,-22z" id="base 1 1 1" fill="none" stroke-width="1"></path><g id="Capa_1 1 1" fill="#000000" stroke-width="1" font-family="Roboto, sans-serif" font-weight="400" font-size="14" text-anchor="start"><g></g><g></g><g></g><g></g><g></g><g></g><g></g><g></g><g></g><g></g><g></g><g></g><g></g><g></g><g></g><g></g></g><rect x="2" y="2" width="44" height="22" fill="none" stroke-width="1"></rect><path d="M2,24v-22h44v22z" fill="none" stroke-width="1"></path><path d="M2,24v-22h44v22z" fill="none" stroke-width="1"></path><path d="M2,24v-22h44v22z" fill="none" stroke-width="1"></path><path d="M2,24v-22h44v22z" fill="none" stroke-width="1"></path></g></svg>